<svg width="108" height="108" viewBox="0 0 108 108" fill="none" xmlns="http://www.w3.org/2000/svg">
  <rect width="108" height="108" rx="24" fill="#132347"/>
  <path d="M14 18H94C101.732 18 108 24.268 108 32V76C108 93.6731 93.6731 108 76 108H32C14.3269 108 0 93.6731 0 76V32C0 24.268 6.26801 18 14 18Z" fill="#1E3569"/>
  <path d="M26 28H66C70.4183 28 74 31.5817 74 36V56C74 60.4183 70.4183 64 66 64H26C21.5817 64 18 60.4183 18 56V36C18 31.5817 21.5817 28 26 28Z" fill="#AFC6FF"/>
  <path d="M48 46H82C86.4183 46 90 49.5817 90 54V76C90 80.4183 86.4183 84 82 84H48C43.5817 84 40 80.4183 40 76V54C40 49.5817 43.5817 46 48 46Z" fill="#7EDFCB"/>
  <path d="M28 40H56V44H28V40ZM28 48H50V52H28V48ZM50 58H74V62H50V58ZM50 66H68V70H50V66Z" fill="#132347"/>
  <path d="M22 78C31.33 78 38.67 80.67 44 86C47.33 78 54 74 64 74C70.87 74 76.87 75.87 82 79.6V90C76.93 84.8 70.27 82.2 62 82.2C53.2 82.2 47.13 85.53 43.8 92.2H34C31.07 87.67 27.07 84.87 22 83.8V78Z" fill="#F5F8FF"/>
</svg>
